HIERARCHY
ROOT Hips
{
	OFFSET 0.000000 0.000000 0.000000
	CHANNELS 6 Xposition Yposition Zposition Zrotation Yrotation Xrotation 
	JOINT Spine1
	{
		OFFSET -0.013727 5.003763 -0.053727
		CHANNELS 3 Zrotation Yrotation Xrotation
		JOINT Spine2
		{
			OFFSET -0.000000 7.125302 -0.029825
			CHANNELS 3 Zrotation Yrotation Xrotation
			JOINT Chest
			{
				OFFSET -0.000001 7.550063 -0.815971
				CHANNELS 3 Zrotation Yrotation Xrotation
				JOINT Neck1
				{
					OFFSET -0.181676 26.311296 -0.553348
					CHANNELS 3 Zrotation Yrotation Xrotation
					JOINT Neck2
					{
						OFFSET -0.000003 7.709399 2.302585
						CHANNELS 3 Zrotation Yrotation Xrotation
						JOINT Head
						{
							OFFSET -0.000005 6.128912 1.953709
							CHANNELS 3 Zrotation Yrotation Xrotation
							JOINT HeadEnd
							{
								OFFSET 0.003598 16.065401 -1.835380
								CHANNELS 3 Zrotation Yrotation Xrotation
								End Site
								{
									OFFSET 0.000000 0.000000 0.000000
								}
							}
							JOINT Jaw
							{
								OFFSET 0.002637 0.475591 3.094941
								CHANNELS 3 Zrotation Yrotation Xrotation
								End Site
								{
									OFFSET 0.000000 0.000000 0.000000
								}
							}
							JOINT LeftEye
							{
								OFFSET 3.206380 5.380208 7.586882
								CHANNELS 3 Zrotation Yrotation Xrotation
								End Site
								{
									OFFSET 0.000000 0.000000 0.000000
								}
							}
							JOINT RightEye
							{
								OFFSET -3.222440 5.361868 7.558232
								CHANNELS 3 Zrotation Yrotation Xrotation
								End Site
								{
									OFFSET 0.000000 0.000000 0.000000
								}
							}
						}
					}
				}
				JOINT LeftShoulder
				{
					OFFSET 1.621652 23.237164 5.113413
					CHANNELS 3 Zrotation Yrotation Xrotation
					JOINT LeftArm
					{
						OFFSET 14.919845 0.000000 -5.502326
						CHANNELS 3 Zrotation Yrotation Xrotation
						JOINT LeftForeArm
						{
							OFFSET 28.739313 0.000003 -0.002588
							CHANNELS 3 Zrotation Yrotation Xrotation
							JOINT LeftHand
							{
								OFFSET 27.093983 -0.000003 0.002610
								CHANNELS 3 Zrotation Yrotation Xrotation
								JOINT LeftHandThumb1
								{
									OFFSET 2.276481 -1.392046 3.191413
									CHANNELS 3 Zrotation Yrotation Xrotation
									JOINT LeftHandThumb2
									{
										OFFSET 4.012840 -1.828126 1.641655
										CHANNELS 3 Zrotation Yrotation Xrotation
										JOINT LeftHandThumb3
										{
											OFFSET 2.798517 0.000001 -0.000003
											CHANNELS 3 Zrotation Yrotation Xrotation
											JOINT LeftHandThumbEnd
											{
												OFFSET 3.180791 -0.000002 0.000003
												CHANNELS 3 Zrotation Yrotation Xrotation
												End Site
												{
													OFFSET 0.000000 0.000000 0.000000
												}
											}
										}
									}
								}
								JOINT LeftHandIndex1
								{
									OFFSET 3.247554 -0.531998 2.296169
									CHANNELS 3 Zrotation Yrotation Xrotation
									JOINT LeftHandIndex2
									{
										OFFSET 6.364580 0.012062 0.178600
										CHANNELS 3 Zrotation Yrotation Xrotation
										JOINT LeftHandIndex3
										{
											OFFSET 3.662366 0.000001 -0.000000
											CHANNELS 3 Zrotation Yrotation Xrotation
											JOINT LeftHandIndex4
											{
												OFFSET 2.329243 0.000003 0.000005
												CHANNELS 3 Zrotation Yrotation Xrotation
												JOINT LeftHandIndexEnd
												{
													OFFSET 2.759619 -0.180539 -0.113024
													CHANNELS 3 Zrotation Yrotation Xrotation
													End Site
													{
														OFFSET 0.000000 0.000000 0.000000
													}
												}
											}
										}
									}
								}
								JOINT LeftHandMiddle1
								{
									OFFSET 3.163499 0.240982 1.000332
									CHANNELS 3 Zrotation Yrotation Xrotation
									JOINT LeftHandMiddle2
									{
										OFFSET 6.190778 -0.259276 -1.002548
										CHANNELS 3 Zrotation Yrotation Xrotation
										JOINT LeftHandMiddle3
										{
											OFFSET 4.356523 -0.000005 0.000000
											CHANNELS 3 Zrotation Yrotation Xrotation
											JOINT LeftHandMiddle4
											{
												OFFSET 2.996875 -0.000007 0.000001
												CHANNELS 3 Zrotation Yrotation Xrotation
												JOINT LeftHandMiddleEnd
												{
													OFFSET 2.304294 -0.294571 -0.031739
													CHANNELS 3 Zrotation Yrotation Xrotation
													End Site
													{
														OFFSET 0.000000 0.000000 0.000000
													}
												}
											}
										}
									}
								}
								JOINT LeftHandRing1
								{
									OFFSET 2.882642 -0.053650 -0.322543
									CHANNELS 3 Zrotation Yrotation Xrotation
									JOINT LeftHandRing2
									{
										OFFSET 5.854543 -0.486203 -1.373841
										CHANNELS 3 Zrotation Yrotation Xrotation
										JOINT LeftHandRing3
										{
											OFFSET 4.350581 0.000001 0.000004
											CHANNELS 3 Zrotation Yrotation Xrotation
											JOINT LeftHandRing4
											{
												OFFSET 2.651324 0.000008 0.000003
												CHANNELS 3 Zrotation Yrotation Xrotation
												JOINT LeftHandRingEnd
												{
													OFFSET 1.936111 0.077685 -0.000070
													CHANNELS 3 Zrotation Yrotation Xrotation
													End Site
													{
														OFFSET 0.000000 0.000000 0.000000
													}
												}
											}
										}
									}
								}
								JOINT LeftHandPinky1
								{
									OFFSET 2.865500 -0.310004 -1.600378
									CHANNELS 3 Zrotation Yrotation Xrotation
									JOINT LeftHandPinky2
									{
										OFFSET 5.087853 -1.331142 -1.771231
										CHANNELS 3 Zrotation Yrotation Xrotation
										JOINT LeftHandPinky3
										{
											OFFSET 3.070976 0.000004 0.000000
											CHANNELS 3 Zrotation Yrotation Xrotation
											JOINT LeftHandPinky4
											{
												OFFSET 1.549667 0.000000 0.000001
												CHANNELS 3 Zrotation Yrotation Xrotation
												JOINT LeftHandPinkyEnd
												{
													OFFSET 1.944894 -0.157802 0.057219
													CHANNELS 3 Zrotation Yrotation Xrotation
													End Site
													{
														OFFSET 0.000000 0.000000 0.000000
													}
												}
											}
										}
									}
								}
							}
						}
					}
				}
				JOINT RightShoulder
				{
					OFFSET -1.380118 23.180307 5.214158
					CHANNELS 3 Zrotation Yrotation Xrotation
					JOINT RightArm
					{
						OFFSET -15.037197 0.000012 -5.545604
						CHANNELS 3 Zrotation Yrotation Xrotation
						JOINT RightForeArm
						{
							OFFSET -28.736639 0.000002 -0.002599
							CHANNELS 3 Zrotation Yrotation Xrotation
							JOINT RightHand
							{
								OFFSET -27.133619 0.000000 0.002613
								CHANNELS 3 Zrotation Yrotation Xrotation
								JOINT RightHandThumb1
								{
									OFFSET -2.274036 -1.383990 3.163127
									CHANNELS 3 Zrotation Yrotation Xrotation
									JOINT RightHandThumb2
									{
										OFFSET -4.011430 -1.827468 1.640915
										CHANNELS 3 Zrotation Yrotation Xrotation
										JOINT RightHandThumb3
										{
											OFFSET -2.794934 -0.000004 -0.000003
											CHANNELS 3 Zrotation Yrotation Xrotation
											JOINT RightHandThumbEnd
											{
												OFFSET -3.183855 0.000003 0.000000
												CHANNELS 3 Zrotation Yrotation Xrotation
												End Site
												{
													OFFSET 0.000000 0.000000 0.000000
												}
											}
										}
									}
								}
								JOINT RightHandIndex1
								{
									OFFSET -3.253269 -0.520060 2.282866
									CHANNELS 3 Zrotation Yrotation Xrotation
									JOINT RightHandIndex2
									{
										OFFSET -6.341918 0.012473 0.178265
										CHANNELS 3 Zrotation Yrotation Xrotation
										JOINT RightHandIndex3
										{
											OFFSET -3.654874 -0.000009 -0.000001
											CHANNELS 3 Zrotation Yrotation Xrotation
											JOINT RightHandIndex4
											{
												OFFSET -2.327587 0.000001 0.000000
												CHANNELS 3 Zrotation Yrotation Xrotation
												JOINT RightHandIndexEnd
												{
													OFFSET -2.761789 -0.180657 -0.113079
													CHANNELS 3 Zrotation Yrotation Xrotation
													End Site
													{
														OFFSET 0.000000 0.000000 0.000000
													}
												}
											}
										}
									}
								}
								JOINT RightHandMiddle1
								{
									OFFSET -3.168105 0.246593 1.001030
									CHANNELS 3 Zrotation Yrotation Xrotation
									JOINT RightHandMiddle2
									{
										OFFSET -6.180830 -0.258836 -1.000896
										CHANNELS 3 Zrotation Yrotation Xrotation
										JOINT RightHandMiddle3
										{
											OFFSET -4.348905 -0.000001 -0.000001
											CHANNELS 3 Zrotation Yrotation Xrotation
											JOINT RightHandMiddle4
											{
												OFFSET -3.000243 -0.000004 -0.000002
												CHANNELS 3 Zrotation Yrotation Xrotation
												JOINT RightHandMiddleEnd
												{
													OFFSET -2.302518 -0.294371 -0.031706
													CHANNELS 3 Zrotation Yrotation Xrotation
													End Site
													{
														OFFSET 0.000000 0.000000 0.000000
													}
												}
											}
										}
									}
								}
								JOINT RightHandRing1
								{
									OFFSET -2.885693 -0.067952 -0.308858
									CHANNELS 3 Zrotation Yrotation Xrotation
									JOINT RightHandRing2
									{
										OFFSET -5.854198 -0.486132 -1.373731
										CHANNELS 3 Zrotation Yrotation Xrotation
										JOINT RightHandRing3
										{
											OFFSET -4.338814 -0.000004 -0.000000
											CHANNELS 3 Zrotation Yrotation Xrotation
											JOINT RightHandRing4
											{
												OFFSET -2.654905 -0.000004 0.000004
												CHANNELS 3 Zrotation Yrotation Xrotation
												JOINT RightHandRingEnd
												{
													OFFSET -1.933570 0.077524 -0.000052
													CHANNELS 3 Zrotation Yrotation Xrotation
													End Site
													{
														OFFSET 0.000000 0.000000 0.000000
													}
												}
											}
										}
									}
								}
								JOINT RightHandPinky1
								{
									OFFSET -2.866429 -0.342798 -1.584145
									CHANNELS 3 Zrotation Yrotation Xrotation
									JOINT RightHandPinky2
									{
										OFFSET -5.091371 -1.332054 -1.772385
										CHANNELS 3 Zrotation Yrotation Xrotation
										JOINT RightHandPinky3
										{
											OFFSET -3.062666 -0.000007 0.000000
											CHANNELS 3 Zrotation Yrotation Xrotation
											JOINT RightHandPinky4
											{
												OFFSET -1.546527 0.000006 -0.000002
												CHANNELS 3 Zrotation Yrotation Xrotation
												JOINT RightHandPinkyEnd
												{
													OFFSET -1.945122 -0.157722 0.057211
													CHANNELS 3 Zrotation Yrotation Xrotation
													End Site
													{
														OFFSET 0.000000 0.000000 0.000000
													}
												}
											}
										}
									}
								}
							}
						}
					}
				}
			}
		}
	}
	JOINT LeftLeg
	{
		OFFSET 10.043214 -8.434526 2.595655
		CHANNELS 3 Zrotation Yrotation Xrotation
		JOINT LeftShin
		{
			OFFSET -0.000001 -43.221752 -0.802913
			CHANNELS 3 Zrotation Yrotation Xrotation
			JOINT LeftFoot
			{
				OFFSET 0.000002 -42.155094 -3.481523
				CHANNELS 3 Zrotation Yrotation Xrotation
				JOINT LeftToeBase
				{
					OFFSET 0.000000 -5.059475 13.231529
					CHANNELS 3 Zrotation Yrotation Xrotation
					JOINT LeftToeEnd
					{
						OFFSET -0.009607 -1.647616 6.513017
						CHANNELS 3 Zrotation Yrotation Xrotation
						End Site
						{
							OFFSET 0.000000 0.000000 0.000000
						}
					}
				}
			}
		}
	}
	JOINT RightLeg
	{
		OFFSET -10.047277 -8.295259 2.620317
		CHANNELS 3 Zrotation Yrotation Xrotation
		JOINT RightShin
		{
			OFFSET 0.000001 -43.362209 -0.805556
			CHANNELS 3 Zrotation Yrotation Xrotation
			JOINT RightFoot
			{
				OFFSET 0.000002 -42.117393 -3.478397
				CHANNELS 3 Zrotation Yrotation Xrotation
				JOINT RightToeBase
				{
					OFFSET -0.000001 -5.079609 13.284196
					CHANNELS 3 Zrotation Yrotation Xrotation
					JOINT RightToeEnd
					{
						OFFSET 0.009532 -1.634384 6.460591
						CHANNELS 3 Zrotation Yrotation Xrotation
						End Site
						{
							OFFSET 0.000000 0.000000 0.000000
						}
					}
				}
			}
		}
	}
}
MOTION
Frames: 4
Frame Time: 0.033333
3.905654 97.369240 1.340291 -0.818698 -0.214611 -0.486522 0.090700 0.639405 2.142491 -0.548544 0.420453 -4.818583 1.447785 -1.691437 14.438428 -6.177202 8.898881 23.449045 1.107209 6.749426 -3.073327 -3.761728 7.699103 17.607800 0.000078 -0.000023 0.000006 0.042724 -0.045467 -0.196283 0.874851 -3.863585 -10.833162 -0.797102 3.767907 -10.808291 23.610514 -18.480085 8.462609 -95.076561 -36.009617 -16.706573 179.695511 -30.572887 179.865143 -2.448401 -16.252083 -10.160044 -5.882101 9.861280 0.702588 -10.936860 -0.360576 7.156197 0.000000 8.774814 -0.000001 -16.703985 17.956194 6.036445 -1.844030 2.498503 -2.507275 -10.163589 4.678938 4.621103 -20.975994 -0.000004 0.000003 -21.226250 2.451692 -3.593994 0.000001 -0.000006 -0.000001 -1.362681 2.240797 -0.746323 -21.334887 0.584906 3.008320 -13.821195 -0.000003 0.000002 -23.887131 -0.249078 -0.839480 -61.738522 2.166337 -1.513521 -0.294024 1.679686 0.833255 -14.218192 0.093214 1.300578 -34.211998 -0.287564 0.967170 -20.033176 0.964534 1.212843 -0.000000 -0.000000 0.000000 -3.440386 0.788232 0.501653 -15.928165 -3.167307 2.999704 -6.338817 -0.000002 0.000001 -18.123415 3.648176 -4.905663 -0.000005 0.000000 -0.000002 -13.305415 25.925140 11.047148 94.586807 47.484608 16.027935 179.891022 38.152748 -179.565506 -7.054997 12.506950 -7.121502 2.243539 -5.255033 -3.180155 14.282878 -0.826592 6.952499 -0.000003 -12.690592 -0.000001 16.924179 -18.762590 3.025425 1.665664 -1.955920 -2.878295 4.727794 -4.170584 4.993920 11.020512 0.000004 -0.000000 12.109030 -3.735709 -2.866777 0.000001 0.000000 -0.000001 1.291984 -1.928548 -1.498085 14.800111 0.567470 3.865602 14.242551 -1.341734 -6.660649 19.631939 0.143928 -0.648242 51.488262 -1.181115 -5.808119 0.353028 -1.511150 -0.031941 20.222773 3.684310 2.316628 18.787245 0.000006 0.000002 10.751610 -0.479866 1.397906 -0.000001 0.000001 -0.000002 3.273804 0.305947 -0.580112 21.486794 11.830368 2.266135 8.162918 0.000003 -0.000001 18.399054 -3.798981 -4.940566 0.000004 -0.000001 -0.000001 9.942456 25.138451 -19.959282 -0.360297 -0.682604 26.952877 -10.545879 -10.824961 1.686570 1.637016 -1.830007 -1.088944 -0.000000 0.000000 0.000002 -12.108064 -10.608800 0.002445 0.068340 0.577799 17.598509 12.455930 5.582898 -10.183762 -1.434757 0.899226 -1.801431 0.000000 0.000000 -0.000001 
3.737964 97.362778 1.319506 -0.794733 -0.495345 -0.546910 0.082593 0.594247 2.192212 -0.511314 0.402505 -4.842495 1.444267 -1.647262 14.506667 -6.227811 8.944719 23.477947 1.074992 6.772033 -3.062536 -3.927511 7.877450 17.614021 0.000077 -0.000023 0.000005 0.062919 -0.041909 -0.181031 0.893771 -3.877065 -10.865152 -0.775188 3.783259 -10.836781 23.657391 -18.475386 8.545200 -94.994682 -35.889061 -16.732597 179.476318 -30.472477 179.977249 -2.483364 -16.352552 -10.348611 -5.882100 9.861279 0.702590 -10.936858 -0.360574 7.156198 -0.000000 8.774816 -0.000002 -16.722198 17.996017 6.067482 -1.844031 2.498502 -2.507277 -10.163589 4.678941 4.621105 -20.975996 -0.000003 0.000004 -21.226250 2.451694 -3.593992 0.000001 -0.000006 0.000001 -1.362681 2.240797 -0.746323 -21.334890 0.584908 3.008322 -13.821195 -0.000003 0.000003 -23.887129 -0.249076 -0.839479 -61.864052 2.074660 -1.519718 -0.294025 1.679686 0.833254 -14.218194 0.093214 1.300581 -34.212002 -0.287562 0.967173 -20.033178 0.964536 1.212844 -0.000000 -0.000000 -0.000000 -3.440385 0.788233 0.501656 -15.928167 -3.167306 2.999706 -6.338817 -0.000001 0.000002 -18.123411 3.648177 -4.905658 -0.000005 0.000000 -0.000002 -13.312826 26.026611 11.200810 94.723381 47.580719 16.107084 179.730988 38.155861 -179.638107 -6.944694 12.625664 -6.913208 2.243539 -5.255032 -3.180154 14.282877 -0.826593 6.952499 -0.000002 -12.690592 -0.000001 16.787535 -18.707750 3.041289 1.665664 -1.955920 -2.878297 4.727794 -4.170583 4.993917 11.020512 0.000003 0.000000 12.109031 -3.735708 -2.866779 0.000001 -0.000000 -0.000000 1.291984 -1.928548 -1.498090 14.800109 0.567468 3.865604 14.242553 -1.341735 -6.660647 19.631937 0.143925 -0.648239 51.381111 -1.197794 -5.777460 0.353029 -1.511149 -0.031941 20.222771 3.684308 2.316631 18.787245 0.000005 0.000003 10.751607 -0.479868 1.397904 0.000001 0.000003 0.000000 3.273804 0.305947 -0.580109 21.486790 11.830363 2.266133 8.162916 0.000003 -0.000001 18.399054 -3.798977 -4.940566 0.000003 -0.000002 -0.000001 10.130087 25.196625 -19.777634 -0.358969 -0.659280 26.905947 -10.697068 -10.513742 1.796267 1.635758 -1.871258 -1.104436 0.000000 0.000001 0.000002 -12.072083 -10.649500 -0.137940 0.063874 0.538486 17.832153 12.375343 5.996910 -10.290776 -1.438416 0.888809 -1.860615 0.000000 0.000000 -0.000001 
3.552945 97.334717 1.310650 -0.786742 -0.678854 -0.604258 0.101350 0.536838 2.215218 -0.499128 0.404268 -4.855505 1.440595 -1.620294 14.548140 -6.275501 8.993787 23.527246 1.093924 6.744983 -3.037947 -4.059464 8.035339 17.514158 0.000077 -0.000023 0.000006 0.073859 -0.067338 -0.187205 0.904594 -3.905681 -10.892256 -0.749433 3.762980 -10.866039 23.659678 -18.474527 8.604643 -94.778664 -35.801220 -16.850985 179.285126 -30.383440 -179.917786 -2.515879 -16.387623 -10.538550 -5.882102 9.861279 0.702590 -10.936858 -0.360574 7.156198 0.000001 8.774813 -0.000001 -16.715353 17.992426 6.111533 -1.844031 2.498503 -2.507274 -10.163589 4.678940 4.621105 -20.975994 -0.000004 0.000004 -21.226254 2.451693 -3.593990 0.000001 -0.000006 -0.000000 -1.362680 2.240796 -0.746321 -21.334885 0.584908 3.008322 -13.821195 -0.000002 0.000003 -23.887125 -0.249076 -0.839479 -61.999352 2.074391 -1.505442 -0.294024 1.679686 0.833255 -14.218192 0.093214 1.300581 -34.211998 -0.287563 0.967173 -20.033176 0.964536 1.212843 -0.000000 -0.000000 0.000000 -3.440384 0.788233 0.501655 -15.928169 -3.167306 2.999705 -6.338817 -0.000001 0.000002 -18.123415 3.648178 -4.905659 -0.000005 0.000001 -0.000001 -13.314686 26.050730 11.272376 94.827744 47.687386 16.158195 179.565659 38.269955 -179.717926 -6.897083 12.805117 -6.865480 2.243540 -5.255033 -3.180156 14.282879 -0.826594 6.952495 -0.000001 -12.690587 -0.000001 16.599865 -18.624123 3.072931 1.665665 -1.955920 -2.878298 4.727795 -4.170583 4.993918 11.020513 0.000003 -0.000001 12.109035 -3.735709 -2.866779 0.000001 -0.000000 -0.000000 1.291984 -1.928548 -1.498089 14.800111 0.567467 3.865602 14.242554 -1.341735 -6.660647 19.631939 0.143922 -0.648243 51.303665 -1.198946 -5.766016 0.353029 -1.511149 -0.031939 20.222771 3.684305 2.316627 18.787245 0.000005 -0.000000 10.751610 -0.479869 1.397903 0.000000 0.000002 0.000000 3.273805 0.305946 -0.580113 21.486790 11.830359 2.266130 8.162916 0.000003 -0.000002 18.399057 -3.798977 -4.940567 0.000004 -0.000002 -0.000001 10.322477 25.279074 -19.636030 -0.356161 -0.641405 26.879332 -10.831296 -10.301867 1.848687 1.634173 -1.880486 -1.066947 0.000000 -0.000000 0.000002 -12.007756 -10.744304 -0.246832 0.063650 0.520208 18.077328 12.255724 6.376580 -10.503744 -1.440993 0.902470 -1.849800 -0.000000 -0.000000 -0.000001 
3.225088 97.273605 1.263414 -0.789407 -0.854902 -0.650020 0.134340 0.515288 2.221767 -0.497539 0.403109 -4.857959 1.442639 -1.649381 14.558162 -6.350633 9.052096 23.587255 1.117051 6.704563 -3.036275 -4.174086 8.163650 17.499619 0.000077 -0.000023 0.000007 0.089629 -0.074734 -0.189065 0.915269 -3.918732 -10.910899 -0.733875 3.756009 -10.856630 23.616467 -18.445816 8.631835 -94.497200 -35.688484 -17.049631 179.204971 -30.319786 -179.857407 -2.496984 -16.403830 -10.638105 -5.882102 9.861279 0.702590 -10.936858 -0.360576 7.156196 0.000001 8.774814 -0.000001 -16.671515 17.949821 6.146722 -1.844031 2.498503 -2.507276 -10.163590 4.678940 4.621103 -20.975998 -0.000003 0.000002 -21.226255 2.451693 -3.593994 -0.000000 -0.000006 0.000000 -1.362680 2.240796 -0.746324 -21.334894 0.584909 3.008320 -13.821197 -0.000003 0.000002 -23.887135 -0.249078 -0.839482 -62.046097 2.068417 -1.490479 -0.294025 1.679686 0.833255 -14.218194 0.093214 1.300578 -34.212002 -0.287564 0.967169 -20.033180 0.964535 1.212841 0.000000 0.000000 -0.000000 -3.440386 0.788233 0.501656 -15.928169 -3.167306 2.999703 -6.338817 -0.000001 0.000001 -18.123413 3.648175 -4.905661 -0.000004 0.000001 -0.000001 -13.367836 26.048183 11.268012 95.002731 47.751728 16.170855 179.381042 38.375740 -179.815704 -6.940231 12.921678 -7.037348 2.243540 -5.255033 -3.180155 14.282878 -0.826594 6.952495 -0.000001 -12.690588 -0.000002 16.522804 -18.589687 3.091655 1.665665 -1.955920 -2.878298 4.727794 -4.170583 4.993920 11.020511 0.000003 0.000000 12.109031 -3.735710 -2.866778 0.000001 -0.000000 -0.000001 1.291984 -1.928547 -1.498086 14.800111 0.567468 3.865604 14.242553 -1.341735 -6.660646 19.631937 0.143927 -0.648241 51.360447 -1.239513 -5.762167 0.353029 -1.511149 -0.031940 20.222769 3.684306 2.316629 18.787245 0.000004 -0.000000 10.751606 -0.479867 1.397903 0.000001 0.000003 -0.000001 3.273804 0.305947 -0.580111 21.486790 11.830362 2.266131 8.162916 0.000003 -0.000001 18.399052 -3.798980 -4.940566 0.000004 -0.000002 -0.000001 10.597869 25.396429 -19.481894 -0.344892 -0.634779 26.733866 -11.054342 -10.200842 1.915091 1.633028 -1.882686 -1.033148 0.000000 -0.000000 0.000002 -11.823675 -10.811511 -0.500970 0.077633 0.513914 18.554062 12.069652 6.679565 -10.977459 -1.444609 0.914865 -1.784948 -0.000000 -0.000000 -0.000001 
